<?xml version="1.0" encoding="utf-8"?>
<!-- Generator: Adobe Illustrator 24.0.2, SVG Export Plug-In . SVG Version: 6.00 Build 0)  -->
<svg version="1.1" id="Layer_1" xmlns="http://www.w3.org/2000/svg" xmlns:xlink="http://www.w3.org/1999/xlink" x="0px" y="0px"
	 viewBox="0 0 327 242.8" style="enable-background:new 0 0 327 242.8;" xml:space="preserve">
<style type="text/css">
	.st0{opacity:0.95;}
	.st1{fill:#8064AB;}
	.st2{fill:#FFFFFF;}
	.st3{fill:#D3A1C9;}
	.st4{fill:#FDD7BC;}
</style>
<g id="purple_3_" class="st0">
	<path class="st1" d="M162.6,181L21,221.6c-11.6,3.3-21-3.2-21-14.5V65.9c0-11.6,9.5-23.5,21.3-26.8L164.5,0
		C176-3.1,185.2,3.6,185,15.1l-1.6,139.8C183.3,166.1,174,177.8,162.6,181z"/>
	<path class="st2" d="M67.7,141c-0.2,0-0.4,0.1-0.6,0c-0.2,0-0.5-0.1-0.8-0.1l-29.7-11.5c-0.8-0.3-1.4-0.7-1.8-1.1
		c-0.4-0.4-0.6-1-0.6-1.8l0-2.5c0-0.8,0.2-1.5,0.6-2.1c0.4-0.6,1-1.3,1.8-2l29.9-28.3c0.3-0.2,0.5-0.4,0.8-0.6
		c0.2-0.2,0.5-0.3,0.6-0.3c0.5-0.1,0.9-0.1,1.2,0.1c0.3,0.2,0.5,0.6,0.5,1.1l0,8.7c0,0.9-0.3,1.6-0.8,2.2c-0.5,0.6-1,1.2-1.6,1.7
		l-18.1,16.7l18,6.7c0.5,0.2,1.1,0.4,1.6,0.7c0.5,0.3,0.7,0.9,0.7,1.7l0,8.8c0,0.5-0.2,0.9-0.5,1.3C68.6,140.6,68.2,140.9,67.7,141z
		"/>
	<path class="st2" d="M75.5,146.2c-0.5,0.1-0.9,0.1-1.3-0.2c-0.4-0.3-0.5-0.6-0.5-1c0-0.3,0.1-0.6,0.3-0.9l28.2-74
		c0.2-0.5,0.6-1,1-1.6c0.4-0.6,1.1-1,2-1.2l7.4-2c0.4-0.1,0.8-0.1,1.2,0.2c0.4,0.3,0.5,0.6,0.5,1c0,0.2-0.1,0.5-0.2,0.9l-28.4,74
		c-0.1,0.4-0.4,0.9-0.9,1.5c-0.5,0.6-1.1,1-2,1.3L75.5,146.2z"/>
	<path class="st2" d="M119.8,126.4c-0.4,0.1-0.8,0.1-1.1-0.1c-0.3-0.2-0.5-0.5-0.5-1l0.1-8.7c0-0.9,0.3-1.6,0.8-2.1
		c0.5-0.6,1-1.1,1.6-1.6l17.8-16.6l-17.7-6.6c-0.5-0.2-1.1-0.4-1.5-0.8c-0.5-0.3-0.7-0.9-0.7-1.7l0.1-8.8c0-0.5,0.2-0.9,0.5-1.3
		c0.3-0.4,0.7-0.6,1.2-0.8c0.2-0.1,0.5-0.1,0.7,0c0.2,0,0.5,0.1,0.7,0.1l29.4,11.6c0.8,0.3,1.4,0.7,1.8,1c0.4,0.4,0.6,1,0.6,1.9
		l0,2.4c0,0.8-0.2,1.5-0.6,2.1c-0.4,0.6-1,1.3-1.8,2.1l-29.6,28.1c-0.2,0.2-0.5,0.3-0.7,0.5C120.3,126.2,120,126.3,119.8,126.4z"/>
</g>
<g id="pink_3_" class="st0">
	<path class="st3" d="M236.6,189.3L94,230.3c-11.7,3.4-21.2-3.1-21.2-14.6V74.2c0-11.5,9.6-23.4,21.3-26.6L237.3,8.8
		c11.4-3.1,20.7,3.6,20.6,14.9L257.3,163C257.2,174.2,248,186,236.6,189.3z"/>
	<path class="st2" d="M140.9,149.3c-0.2,0-0.4,0.1-0.6,0c-0.2,0-0.5-0.1-0.8-0.1l-29.9-11.5c-0.8-0.3-1.4-0.7-1.8-1.1
		c-0.4-0.4-0.6-1-0.6-1.8l0-2.5c0-0.8,0.2-1.5,0.6-2.1c0.4-0.6,1-1.3,1.8-2l30-28.3c0.3-0.2,0.5-0.4,0.8-0.6
		c0.2-0.2,0.5-0.3,0.6-0.3c0.5-0.1,0.9-0.1,1.2,0.1c0.3,0.2,0.5,0.6,0.5,1.1l0,8.7c0,0.9-0.3,1.6-0.7,2.2c-0.5,0.6-1,1.2-1.6,1.7
		l-18.1,16.7l18.1,6.6c0.6,0.2,1.1,0.4,1.6,0.7c0.5,0.3,0.7,0.9,0.7,1.7l0,8.8c0,0.5-0.2,0.9-0.5,1.3
		C141.8,148.9,141.4,149.1,140.9,149.3z"/>
	<path class="st2" d="M148.8,154.4c-0.5,0.1-0.9,0.1-1.3-0.2c-0.4-0.3-0.5-0.6-0.5-1c0-0.3,0.1-0.6,0.2-0.9l28.1-73.9
		c0.2-0.5,0.6-1,1-1.6c0.4-0.6,1.1-1,2-1.2l7.4-2c0.4-0.1,0.8-0.1,1.2,0.2c0.4,0.3,0.5,0.6,0.5,1c0,0.2-0.1,0.5-0.2,0.9L159,149.6
		c-0.1,0.4-0.4,0.9-0.9,1.5c-0.5,0.6-1.1,1-2,1.3L148.8,154.4z"/>
	<path class="st2" d="M193.2,134.5c-0.4,0.1-0.8,0.1-1.1-0.1c-0.3-0.2-0.5-0.5-0.5-1l0-8.7c0-0.9,0.3-1.6,0.7-2.1
		c0.5-0.6,1-1.1,1.6-1.6l17.8-16.6L194,97.7c-0.5-0.2-1.1-0.4-1.6-0.8c-0.5-0.3-0.7-0.9-0.7-1.7l0-8.7c0-0.5,0.2-0.9,0.5-1.3
		c0.3-0.4,0.7-0.6,1.2-0.8c0.2-0.1,0.5-0.1,0.7,0c0.2,0,0.5,0.1,0.7,0.1l29.5,11.6c0.8,0.3,1.4,0.7,1.8,1c0.4,0.4,0.6,1,0.6,1.9
		l0,2.4c0,0.8-0.2,1.5-0.6,2.1c-0.4,0.6-1,1.3-1.8,2.1l-29.6,28.1c-0.2,0.2-0.5,0.3-0.7,0.5C193.7,134.3,193.4,134.5,193.2,134.5z"
		/>
</g>
<g id="yellow_3_" class="st0">
	<path class="st4" d="M305,203.3l-142.2,39.5c-11.6,3.2-21-3.4-21-14.8V86.6c0-11.5,9.5-23.5,21.1-26.6l143.2-39
		c11.6-3.1,20.9,3.6,20.8,15.1L326,177C325.9,188.4,316.5,200.1,305,203.3z"/>
	<path class="st2" d="M209.4,162.2c-0.2,0-0.4,0-0.6,0c-0.2,0-0.5-0.1-0.8-0.1l-29.7-11.8c-0.8-0.3-1.4-0.7-1.8-1.1
		c-0.4-0.4-0.6-1-0.6-1.8l0-2.5c0-0.8,0.2-1.5,0.6-2.1c0.4-0.6,1-1.3,1.8-2l29.8-28.2c0.3-0.2,0.5-0.4,0.8-0.6
		c0.2-0.2,0.5-0.3,0.6-0.3c0.5-0.1,0.9-0.1,1.2,0.2c0.3,0.2,0.5,0.6,0.5,1.1l0,8.7c0,0.9-0.3,1.6-0.7,2.2c-0.5,0.6-1,1.2-1.6,1.7
		l-18,16.6l18,6.8c0.5,0.2,1.1,0.4,1.6,0.7c0.5,0.3,0.7,0.9,0.7,1.8l0,8.8c0,0.5-0.2,0.9-0.5,1.3
		C210.3,161.8,209.9,162.1,209.4,162.2z"/>
	<path class="st2" d="M217.3,167.4c-0.5,0.1-0.9,0.1-1.3-0.2c-0.4-0.3-0.5-0.6-0.5-1c0-0.3,0.1-0.6,0.2-0.9l28.1-74.1
		c0.2-0.5,0.6-1,1-1.6c0.4-0.6,1.1-1,2-1.2l7.4-2c0.4-0.1,0.8-0.1,1.2,0.2c0.4,0.3,0.5,0.6,0.5,1c0,0.2-0.1,0.5-0.2,0.9l-28.4,74.2
		c-0.1,0.4-0.4,0.9-0.9,1.5c-0.5,0.6-1.1,1-2,1.2L217.3,167.4z"/>
	<path class="st2" d="M261.6,147.8c-0.4,0.1-0.8,0.1-1.1-0.1c-0.3-0.2-0.5-0.6-0.5-1l0-8.8c0-0.9,0.3-1.6,0.7-2.2
		c0.5-0.6,1-1.1,1.6-1.6l17.9-16.6l-17.8-6.8c-0.5-0.2-1.1-0.4-1.6-0.8c-0.5-0.4-0.7-0.9-0.7-1.8l0-8.8c0-0.5,0.2-0.9,0.5-1.3
		c0.3-0.4,0.7-0.6,1.2-0.8c0.2-0.1,0.5-0.1,0.7,0c0.2,0,0.5,0.1,0.7,0.1l29.6,11.8c0.8,0.3,1.4,0.7,1.8,1.1c0.4,0.4,0.6,1,0.6,1.9
		l0,2.4c0,0.8-0.2,1.5-0.6,2.2c-0.4,0.6-1,1.3-1.8,2.1L263,146.9c-0.2,0.2-0.5,0.3-0.7,0.5C262.1,147.6,261.9,147.7,261.6,147.8z"/>
</g>
</svg>
